<?xml version="1.0" encoding="UTF-8"?>
<svg version="1.1" viewBox="0 0 1921 1921" xmlns="http://www.w3.org/2000/svg">
 <defs>
  <linearGradient id="a" x1="897.14" x2="1291.4" y1="-15.804" y2="-1158.7" gradientUnits="userSpaceOnUse">
   <stop stop-color="#f60" offset="0"/>
   <stop stop-color="#f00" offset=".32808"/>
   <stop stop-color="#a00" offset=".6575"/>
   <stop stop-color="#f00" offset="1"/>
  </linearGradient>
 </defs>
 <g transform="translate(0 1279.7)">
  <path d="m865.47-1279.2a960.97 964.19 0 0 0 -266.38 65.62c-9.0662 25.111-25.456 71.647-28.645 82.107-21.146 64.771-26.842 111.89-24.207 200.28 2.9497 98.974 12.313 157.39 40.987 255.78 16.719 57.368 43.187 125.91 72.799 188.53 10.736 22.702 19.517 42.825 19.517 44.721 0 1.8954-23.783 7.3149-52.852 12.041-51.831 8.4264-153.17 27.76-183.55 35.018-8.4566 2.0204-40.455 9.0423-71.11 15.602-107.29 22.958-280.15 61.484-343.49 85.621l-28.039 10.683a960.97 964.19 0 0 0 6.327 74.076c7.0956-2.1894 21.68-7.9638 34.925-12.85 159.28-58.758 291.21-97.497 556.46-163.4l97.4-24.2 7.251 11.958c3.9862 6.5765 5.8846 13.323 4.22 14.994-1.6647 1.6703-30.599 10.003-64.294 18.519-33.695 8.5158-65.589 17.063-70.874 18.991-5.2853 1.9282-27.77 8.9384-49.969 15.578-51.644 15.447-195.84 62.548-238.32 77.849-117.98 42.492-242.76 97.833-265.65 116.42a960.97 964.19 0 0 0 17.98 77.808l33.583-20.858c70.906-44.241 130.79-75.102 214.19-110.38 113.72-48.106 306.05-117.55 379.74-137.12 25.648-6.8091 49.549-14.517 53.111-17.131 5.8643-4.3024 6.0122-7.6382 1.6009-35.207-2.68-16.749-15.732-73.839-29.01-126.87-36.636-146.32-38.499-159.01-38.227-260.33 0.19917-74.271 1.4445-92.436 8.6695-126.07 23.384-108.86 73.042-210.76 150.01-307.81 18.689-24.273 39.575-56.824 55.842-79.964zm291.07 14.952c-19.512 7.7524-61.356 35.647-75.306 44.827-179.31 117.99-298.95 275.2-341.81 449.12-17.53 71.147-19.522 91.054-19.422 193.93 0.0765 79.272 1.7012 109.95 8.381 158.13 14.457 104.28 14.37 102.12 4.0787 102.7-16.997 0.95918-193.63 71.709-279.18 111.82-19.796 9.2823-36.697 16.877-37.562 16.877-4.0818 0-145.88 72.68-185.45 95.058-60.524 34.223-89.036 52.576-125.38 80.714-24.913 19.287-37.512 27.512-41.181 37.392a960.97 964.19 0 0 0 36.214 81.812c2.8678-2.5979 6.1959-6.1703 8.2928-9.7319 8.6812-14.745 74.31-81.807 102.39-104.62 96.386-78.331 268.9-169.25 466.58-245.91 33.579-13.021 61.56-23.17 62.175-22.552 0.61558 0.61768 1.6837 9.6979 2.3719 20.178l1.2478 19.056-48.044 17.911c-153.2 57.111-316.8 146.18-429.1 233.61-67.165 52.294-104.95 110.91-108.28 167.99l-1.3301 22.789a960.97 964.19 0 0 0 119.97 149.26c63.688 29.257 185.87 28.353 284.2 2.1614 146.84-39.112 298.35-148.87 382.46-277.06 45.018-68.618 83.191-146.97 161.45-331.36 64.049-150.91 125.86-239.68 215.26-309.13 43.249-33.602 90.177-51.346 93.398-35.314 3.1569 15.712-89.515 95.767-141.9 122.58-16.212 8.2982-18.514 5.3192-8.4693-10.972 13.216-21.435-33.936 28.447-52.935 56-39.644 57.492-53.331 92.633-126.57 324.99-34.166 108.4-61.008 167.6-107.48 237.07-126.95 189.76-340.99 311.13-550.65 312.24-23.602 0.12548-37.377-0.76105-45.325-1.1456a960.97 964.19 0 0 0 166.3 101.82c214.81-82.134 363.92-145.15 489.63-369.42 35.824-71.357 51.264-118.35 90.297-274.78 38.399-153.89 57.915-226.99 61.752-231.29 1.9074-2.1386 2.2757 1.5693 0.8593 8.6749-1.9557 9.8114-1.1929 12.419 3.6314 12.419 16.727 0 101.31-40.495 174.61-83.589 154.74-90.975 230.21-153.25 260.65-215.11 13.854-28.145 15.085-33.24 15.085-62.378 0-35.302-4.9031-45.901-28.798-62.218-20.171-13.774-41.041-17.962-88.437-17.751-49.94 0.22162-90.698 8.9175-145.76 31.103-117.55 47.369-241.51 152.01-328.12 277.02-28.052 40.486-40.936 63.49-93.91 167.63-54.002 106.16-64.417 125.31-97.889 180-96.5 157.66-189.27 242.13-310.98 283.15-66.965 22.568-123.35 15.194-141.31-18.484-19.861-37.235 31.406-107.22 123.35-168.38 60.787-40.437 200.51-117.85 204.85-113.5 4.3742 4.3888-9.169 28.4-23.737 42.081-8.1741 7.677-38.213 26.564-66.754 41.975-86.279 46.587-138.59 87.575-164.9 129.2-15.059 23.824-16.501 48.402-3.3783 57.624 17.959 12.621 74.16 3.9952 114.67-17.598 27.57-14.696 81.805-58.571 119.12-96.363 60.202-60.975 106.39-132.73 173.51-269.57 101.02-205.96 119.82-239.91 170.85-308.54 99.189-133.4 262.72-238.28 424.26-272.12 34.402-7.2064 97.663-9.4957 126.85-4.5884 64.425 12.809 120.01 41.78 122.97 114.46-0.034 16.074-10.32 51.153-23.831 81.257-35.576 79.269-151.11 169.58-335.54 262.29-44.397 22.318-104.93 50.893-134.53 63.5-29.598 12.606-54.245 23.133-54.765 23.391-2.5243 1.2504-17.368 111.32-27.809 206.19-13.523 122.87-23.878 188.67-36.985 235.04-13.593 48.089-53.858 126.32-89.484 173.87-16.202 21.623-40.693 49.113-64.494 73.255-26.612 24.733-55.75 47.99-87.307 69.99-34.272 23.892-37.772 25.957-93.057 54.913-29.364 15.38-77.324 35.688-109.77 47.319a960.97 964.19 0 0 0 234.76 42.122c117.73-82.285 200.44-190.52 243.45-306.51 2.8641-6.769 5.5483-13.415 7.8867-19.747 40.362-109.3 49.33-204.55 32.977-350.26-4.4475-39.63-8.3365-97.176-8.646-127.88l-0.565-55.823 34.596-11.941c72.696-25.094 228.96-97.306 303.67-140.33 84.275-48.532 136.1-87.778 203.23-153.89 63.579-62.616 94.436-111.41 102.59-162.22 2.3857-14.864 7.7597-22.554 6.9097-35.284a960.97 964.19 0 0 0 -78.955 -140.4c-13.022-10.791-23.897-11.142-41.582-15.974-63.959-17.475-160.96-22.968-248.17-0.31299-102.17 26.544-194.52 70.666-282.29 134.86-79.484 58.135-162.88 147.15-213.36 227.73-38.757 61.872-63.708 115.88-111.65 241.64-32.828 86.115-82.62 189.24-115.45 239.12-51.408 78.107-166.89 174.15-200.51 166.75-14.961-3.2912-4.4787-25.697 25.196-53.856 18.282-17.348 101.5-75.042 116.66-80.879 3.7926-1.4602 4.512-0.015117 2.5779 5.1553-2.3738 6.3462-1.9308 6.5627 3.8374 1.8543 10.006-8.1673 38.38-52.813 55.884-87.93 31.33-62.858 37.004-78.605 100.53-278.92 50.275-158.53 87.278-232.27 160.84-320.52 94.67-113.57 222.05-202.3 361.87-252.08 24.467-8.7106 88.588-27.24 107.62-31.097 44.236-8.9644 106.88-17.243 130.45-17.243l48.444-1.9842a960.97 964.19 0 0 0 -116.79 -102.92c-16.328 0.1072-38.44 5.3252-59.386 8.3738-105.34 15.332-264.13 86.45-372.28 166.74-107.43 79.754-190.12 182.84-236.05 294.25-33.112 80.318-54.705 158.82-88.072 320.11-23.983 115.93-41.157 187.06-38.792 160.68 1.4732-16.431 1.316-16.681-8.7518-14.19-24.898 6.1602-123.46 55.124-185.14 91.975-140.36 83.853-222.95 170.27-222.95 233.29 0 41.273 26.772 72.924 69.45 82.107 31.075 6.6866 98.646 2.0994 143.07-9.7142 100.41-26.699 220.46-113.11 300.55-216.32 46.119-59.432 75.953-107.23 130.02-208.27 75.523-141.14 91.315-169.05 120.55-213.08 17.263-25.997 42.759-60.949 56.66-77.672 102.82-123.69 252.99-217.78 346.01-216.81 45.366 0.4769 63.723 14.194 63.723 47.614 0 42.982-37.909 92.403-109.61 142.9-81.126 57.134-225.68 141.28-243.07 141.5-6.2607 0.0786-6.0734-5.5785 0.6003-18.448 8.8797-17.124 20.44-25.466 86.848-62.637 81.176-45.438 122.08-73.672 155.68-107.45 29.789-29.947 44.237-53.305 44.148-71.383-0.075-15.217-3.3045-20.105-16.609-25.18-24.356-9.2912-63.206-1.1341-115.95 24.348-65.154 31.48-133.32 92.432-193.44 172.99-54.522 73.049-68.894 99.348-175.11 320.45-20.195 42.038-44.684 89.594-54.418 105.68-152.48 252-477.17 400.66-639.86 292.96-20.722-13.718-28.599-22.632-38.109-43.115-20.227-43.563-9.0301-94.685 32.518-148.48 31.185-40.379 69.072-70.819 161.64-129.88 77.969-49.746 205.5-115.53 253.32-130.67 19.027-6.0229 36.846-12.924 39.592-15.336 2.7464-2.4117 7.496-19.857 10.553-38.768 5.2233-32.314 6.4345-53.293 11.294-195.11 8.9017-259.75 110.07-460.52 303.73-602.77 40.24-29.555 44.361-32.122 109.55-68.348 49.595-27.559 145.35-68.839 166.18-71.643l38.038-15.584a960.97 964.19 0 0 0 -226.94 -79.29zm-743.44 152.21a960.97 964.19 0 0 0 -115.62 93.664l12.324 39.436c13.2 50.026 87.042 177.62 153.37 265.01 39.79 52.427 94.883 120.59 102.55 126.88 4.471 3.665 6.0638 6.7026 3.5431 6.7498-6.1757 0.11549-82.549-70.135-151.01-138.9-56.185-56.431-111.67-118.08-155.61-178.86l-34.189-47.295a960.97 964.19 0 0 0 -46.826 61.002c21.939 25.39 106.91 109.73 138.52 134.4 19.027 14.85 65.732 50.642 103.79 79.544 38.054 28.902 70.92 54.363 73.034 56.579 11.719 12.281-175.24-100.68-259.42-156.73-43.754-29.138-76.754-49.513-93.21-57.388a960.97 964.19 0 0 0 -26.697 43.687l26.874 16.529c16.766 10.62 121.01 63.752 166.02 84.617 15.856 7.3507 56.212 26.57 89.679 42.707 33.466 16.138 62.338 29.337 64.159 29.337s4.2614 1.5513 5.4265 3.4428c4.3954 7.1358-131.38-40.002-239.98-83.312-26.427-10.539-62.751-24.862-80.721-31.83-15.964-6.1895-42.881-17.581-51.116-21.011a960.97 964.19 0 0 0 -21.836 45.359c23.396 11.019 102.04 36.552 211.33 65.732 116.89 31.208 246.68 68.517 244.82 70.379-0.68946 0.69177-19.302-2.1268-41.358-6.2596-55.272-10.357-57.943-10.85-103.53-19.245-22.198-4.0883-55.926-10.238-74.953-13.665-19.027-3.4266-62.274-12.122-96.1-19.322-33.826-7.2003-77.934-15.791-98.018-19.092-19.736-3.2436-55.18-7.6839-60.574-8.7635a960.97 964.19 0 0 0 -17.792 51.429c30.1 4.9545 152.58 19.793 232.12 28.446 129.84 14.123 299.72 37.194 303.43 41.207 1.1909 1.2914-5.6182 1.2988-15.132 0.0242-49.406-6.6254-326.92-16.913-492.02-15.182l-42.382 0.44288a960.97 964.19 0 0 0 -12.413 61.675l2.0364-0.31299c6.9889-1.0801 62.369-3.7017 104.65-5.1612 42.283-1.4595 82.932-3.0619 90.332-3.5609 7.3995-0.49897 50.64-2.0655 96.094-3.4842 45.454-1.4186 91.291-3.3077 101.86-4.1987 10.571-0.89096 46.033-2.5874 78.802-3.7676s77.79-3.0995 100.05-4.2695c37.864-1.9904 40.95-1.602 47.897 6.1002 10.476 11.615 4.8362 13.924-41.611 17.031-62.754 4.1973-289.02 25.801-450.36 42.996-56.869 6.0609-123.55 17.44-139.34 22.275a960.97 964.19 0 0 0 -3.4548 69.127c119.51-26.238 333.5-64.908 552.17-97.325 74.311-11.016 106.07-16.725 109.21-19.641 4.3056-3.9998-12.403-36.161-50.946-98.051-117.06-187.97-161.24-290.04-182.76-422.31-6.0569-37.758-11.376-78.183-15.108-126.86zm1461.9 499.99c-4.9372 6.6282-10.07 14.686-10.07 14.686-17.993 34.816-91.189 114.35-141.92 154.2-83.294 65.436-215.74 135.2-372.73 196.32-25.37 9.8779-52.18 20.366-59.58 23.302-34.709 13.775-65.322 24.954-85.529 31.239l-22.1 6.8737 0.059 15.69c0.032 8.6278 1.379 17.774 2.9957 20.326 5.5151 8.7057 216.04-66.417 344.81-123.04 162.41-71.417 281.24-144.37 349.23-214.42 10.293-10.604 17.606-17.046 21.259-23.09a960.97 964.19 0 0 0 -26.432 -102.08zm39.027 184.61-15.556 12.637c-22.576 17.827-94.209 64.23-134.46 87.097-109.07 61.965-295.87 134.16-489.64 189.24-77.41 22.005-79.761 22.966-79.761 32.65 0 11.376 13.342 76.237 32.524 158.1 24.254 103.51 26.528 120.17 26.803 196.69 0.4153 71.314-9.5911 122.05-23.189 172.62-20.67 57.757-51.186 118.26-92.074 186.57-5.1552 8.612-9.3655 15.173-13.396 20.911a960.97 964.19 0 0 0 201.59 -59.407c12.211-54.524 14.081-110.01 12.654-161.27 2.5397-15.686 0.5656-66.969-4.8732-106.09-3.5813-25.763-8.6615-52.706-14.861-79.544-10.052-47.048-23.414-89.446-41.429-134.18-7.3913-18.354-15.556-37.121-24.602-56.779-3.182-7.8922-5.1905-13.567-5.1381-14.917 0.109-2.8052 3.0561 1.8435 6.5506 10.328 3.4945 8.4849 26.134 50.135 50.31 92.56 52.525 92.171 94.649 209.03 113.81 256.83 9.5002 23.7 24.298 89.258 33.312 129.44a960.97 964.19 0 0 0 96.582 -65.496c-23.275-46.507-67.619-128.45-88.908-160.67-16.1-24.364-59.872-84.195-97.277-132.96-37.405-48.763-67.351-89.321-66.542-90.132 1.2692-1.2735 69.247 2.4991 166.35 9.23 83.516 5.7891 319.79 2.1377 379.61-5.3561a960.97 964.19 0 0 0 21.4 -56.927c-24.918 4.2138-81.721 10.412-134.91 15.56-75.595 7.3169-181.08 12.116-347.87 15.82-84.692 1.8811-101.11 1.3443-107.62-3.4959-4.2249-3.1415-6.5349-6.8601-5.1322-8.2674 1.4026-1.4074 27.343-4.114 57.649-6.0116 215.24-13.477 473.49-43.586 555.85-67.214a960.97 964.19 0 0 0 18.94 -74.419c-3.429 1.1707-7.179 2.4555-13.454 4.677-8.6994 3.0796-49.183 14.269-89.967 24.867-109.39 28.426-231.5 50.853-358.6 65.862-110.99 13.106-183.1 24.38-188.11 29.408-5.8494 1.4148-1.9657 16.358-12.83-11.787 0 0-7.5529-16.468-1.0771-14.769 8.4283 2.2115 169.17-27.314 311.56-57.228 142.88-30.017 291.74-72.9 346.55-99.829 6.6781-3.2813 12.237-5.3599 16.432-7.6296a960.97 964.19 0 0 0 7.1981 -76.279c-6.3749 2.9897-27.162 13.439-47.732 22.676-24.068 10.809-49.456 22.202-56.413 25.322-74.097 33.229-182.51 65.386-459.45 136.28-67.27 17.221-124.67 32.22-127.55 33.329-3.192 1.229-7.7729-2.8979-11.718-10.553-5.9996-11.641-6.0106-12.907-0.1648-17.196 3.4712-2.5468 27.459-10.151 53.306-16.895 272.67-71.144 525.66-163.35 625.08-227.83l26.703-16.287a960.97 964.19 0 0 0 -6.4506 -89.3zm-598.68 495.87c-5.4144 0.03749-5.4081 1.0218-4.7908 2.6397 95.486 129.68 215.02 214.67 295.81 320.43a960.97 964.19 0 0 0 52.599 -52.097l-19.216-14.527c-15.45-11.983-40.54-31.788-55.76-44.018s-62.233-49.121-104.47-81.977-76.281-60.248-75.659-60.872c0.6217-0.62372 14.763 7.3347 31.429 17.686 51.021 31.69 198.27 116.6 231.29 133.37 9.6327 4.1478 17.854 8.6297 26.338 13.765a960.97 964.19 0 0 0 30.629 -39.896c-0.058-0.0151-0.1254-0.0387-0.1823-0.0532-22.241-5.6009-211.63-88.885-273.15-120.12-32.79-16.647-37.858-18.053 88.413 24.501 88.98 29.986 175.04 56.111 209.2 63.63a960.97 964.19 0 0 0 25.602 -40.191c-5.4257-1.1367-11.904-2.3623-18.587-3.4605-46.06-7.569-135.95-26.609-193.16-40.918-117.87-29.481-231.08-64.871-157.02-49.079 127.84 27.256 290.53 50.537 361.97 52.474l31.311 0.85037a960.97 964.19 0 0 0 21.865 -42.996c-15.082-0.68656-43.172-1.7227-74.076-2.6338-81.407-2.4001-181.71-10.56-335.88-27.324-61.404-6.6766-85.487-9.2509-94.511-9.1886z" fill="url(#a)"/>
 </g>
</svg>
